<svg xmlns="http://www.w3.org/2000/svg" xmlns:xlink="http://www.w3.org/1999/xlink" width="400" zoomAndPan="magnify"
     viewBox="60 180 250 25" height="200" preserveAspectRatio="xMidYMid meet" version="1.0">
    <path fill="#56c2f9"
          d="M 168.078125 203.632812 C 168.101562 204.355469 168.269531 205.003906 168.589844 205.582031 C 168.910156 206.164062 169.386719 206.609375 170.011719 206.9375 C 170.636719 207.265625 171.402344 207.429688 172.320312 207.429688 C 173.105469 207.429688 173.785156 207.316406 174.355469 207.101562 C 174.929688 206.886719 175.398438 206.625 175.777344 206.320312 C 176.15625 206.015625 176.433594 205.734375 176.609375 205.464844 L 178.1875 207.605469 C 177.847656 208.074219 177.414062 208.484375 176.894531 208.855469 C 176.371094 209.222656 175.726562 209.511719 174.960938 209.710938 C 174.1875 209.921875 173.242188 210.019531 172.109375 210.019531 C 170.621094 210.019531 169.335938 209.710938 168.234375 209.101562 C 167.132812 208.492188 166.285156 207.636719 165.683594 206.519531 C 165.078125 205.414062 164.773438 204.117188 164.773438 202.628906 C 164.773438 201.296875 165.050781 200.101562 165.609375 199.03125 C 166.164062 197.957031 166.96875 197.117188 168.027344 196.492188 C 169.082031 195.875 170.355469 195.5625 171.84375 195.5625 C 173.226562 195.5625 174.429688 195.839844 175.449219 196.394531 C 176.46875 196.953125 177.257812 197.75 177.824219 198.785156 C 178.382812 199.816406 178.664062 201.066406 178.664062 202.535156 C 178.664062 202.621094 178.664062 202.808594 178.65625 203.085938 C 178.648438 203.359375 178.632812 203.546875 178.613281 203.632812 Z M 175.332031 201.039062 C 175.324219 200.679688 175.199219 200.28125 174.972656 199.824219 C 174.742188 199.371094 174.386719 198.976562 173.886719 198.636719 C 173.390625 198.300781 172.71875 198.128906 171.894531 198.128906 C 171.039062 198.128906 170.347656 198.292969 169.820312 198.621094 C 169.28125 198.949219 168.894531 199.335938 168.636719 199.789062 C 168.382812 200.234375 168.234375 200.660156 168.191406 201.046875 L 175.332031 201.046875 Z M 175.332031 201.039062 "
          fill-opacity="1" fill-rule="nonzero"/>
    <path fill="#56c2f9"
          d="M 185.226562 216.542969 L 181.699219 216.542969 L 181.699219 195.964844 L 185.277344 195.964844 L 185.277344 198.34375 C 185.398438 198.011719 185.6875 197.632812 186.132812 197.199219 C 186.578125 196.769531 187.175781 196.386719 187.917969 196.0625 C 188.664062 195.734375 189.511719 195.570312 190.464844 195.570312 C 191.75 195.570312 192.882812 195.875 193.847656 196.492188 C 194.816406 197.109375 195.582031 197.957031 196.125 199.042969 C 196.675781 200.128906 196.949219 201.378906 196.949219 202.800781 C 196.949219 204.222656 196.667969 205.472656 196.101562 206.558594 C 195.535156 207.644531 194.753906 208.492188 193.765625 209.101562 C 192.777344 209.710938 191.632812 210.019531 190.351562 210.019531 C 189.339844 210.019531 188.46875 209.832031 187.726562 209.460938 C 186.980469 209.085938 186.402344 208.671875 185.976562 208.203125 C 185.554688 207.734375 185.308594 207.363281 185.226562 207.085938 Z M 193.445312 202.800781 C 193.445312 201.921875 193.261719 201.15625 192.894531 200.503906 C 192.53125 199.847656 192.046875 199.34375 191.4375 198.976562 C 190.835938 198.621094 190.171875 198.433594 189.453125 198.433594 C 188.679688 198.433594 187.972656 198.621094 187.339844 198.992188 C 186.707031 199.363281 186.207031 199.871094 185.835938 200.523438 C 185.464844 201.171875 185.277344 201.929688 185.277344 202.792969 C 185.277344 203.65625 185.464844 204.414062 185.835938 205.0625 C 186.207031 205.710938 186.707031 206.214844 187.339844 206.589844 C 187.972656 206.953125 188.679688 207.136719 189.453125 207.136719 C 190.171875 207.136719 190.835938 206.960938 191.4375 206.601562 C 192.039062 206.246094 192.523438 205.746094 192.894531 205.09375 C 193.261719 204.445312 193.445312 203.679688 193.445312 202.800781 Z M 193.445312 202.800781 "
          fill-opacity="1" fill-rule="nonzero"/>
    <path fill="#56c2f9"
          d="M 201.914062 191.871094 C 201.316406 191.871094 200.804688 191.65625 200.371094 191.226562 C 199.949219 190.792969 199.734375 190.28125 199.734375 189.679688 C 199.734375 189.082031 199.949219 188.5625 200.371094 188.125 C 200.796875 187.683594 201.308594 187.46875 201.914062 187.46875 C 202.3125 187.46875 202.679688 187.574219 203.019531 187.773438 C 203.355469 187.980469 203.632812 188.242188 203.839844 188.570312 C 204.046875 188.898438 204.144531 189.269531 204.144531 189.679688 C 204.144531 190.273438 203.929688 190.792969 203.496094 191.226562 C 203.058594 191.65625 202.53125 191.871094 201.914062 191.871094 Z M 200.097656 209.625 L 200.097656 195.964844 L 203.636719 195.964844 L 203.636719 209.625 Z M 200.097656 209.625 "
          fill-opacity="1" fill-rule="nonzero"/>
    <path fill="#56c2f9"
          d="M 224.914062 195.570312 C 225.933594 195.570312 226.8125 195.785156 227.550781 196.21875 C 228.285156 196.648438 228.859375 197.320312 229.261719 198.210938 C 229.660156 199.113281 229.871094 200.257812 229.871094 201.65625 L 229.871094 209.625 L 226.359375 209.625 L 226.359375 202.289062 C 226.359375 200.972656 226.171875 199.96875 225.800781 199.273438 C 225.429688 198.589844 224.738281 198.242188 223.710938 198.242188 C 223.152344 198.242188 222.632812 198.390625 222.148438 198.6875 C 221.65625 198.984375 221.269531 199.429688 220.972656 200.027344 C 220.675781 200.621094 220.535156 201.371094 220.535156 202.28125 L 220.535156 209.617188 L 217.238281 209.617188 L 217.238281 202.28125 C 217.238281 200.964844 217.015625 199.960938 216.5625 199.269531 C 216.113281 198.582031 215.445312 198.234375 214.558594 198.234375 C 213.996094 198.234375 213.472656 198.375 212.996094 198.664062 C 212.519531 198.957031 212.132812 199.394531 211.851562 199.996094 C 211.5625 200.59375 211.421875 201.359375 211.421875 202.273438 L 211.421875 209.609375 L 207.894531 209.609375 L 207.894531 195.964844 L 211.421875 195.964844 L 211.421875 198.011719 C 211.539062 197.667969 211.816406 197.304688 212.246094 196.929688 C 212.671875 196.550781 213.207031 196.230469 213.851562 195.964844 C 214.492188 195.695312 215.199219 195.5625 215.964844 195.5625 C 216.800781 195.5625 217.492188 195.71875 218.035156 196.023438 C 218.585938 196.328125 219.023438 196.707031 219.351562 197.164062 C 219.679688 197.617188 219.917969 198.070312 220.070312 198.523438 C 220.226562 198.070312 220.527344 197.617188 220.980469 197.164062 C 221.425781 196.707031 221.992188 196.328125 222.667969 196.023438 C 223.34375 195.71875 224.089844 195.570312 224.914062 195.570312 Z M 224.914062 195.570312 "
          fill-opacity="1" fill-rule="nonzero"/>
    <path fill="#56c2f9"
          d="M 244.390625 209.625 L 244.390625 207.09375 C 244.300781 207.363281 244.050781 207.726562 243.632812 208.195312 C 243.214844 208.664062 242.652344 209.082031 241.9375 209.460938 C 241.222656 209.839844 240.375 210.023438 239.398438 210.023438 C 238.128906 210.023438 236.976562 209.71875 235.957031 209.109375 C 234.9375 208.5 234.132812 207.652344 233.546875 206.566406 C 232.957031 205.480469 232.667969 204.230469 232.667969 202.808594 C 232.667969 201.386719 232.957031 200.136719 233.546875 199.050781 C 234.132812 197.964844 234.9375 197.109375 235.957031 196.5 C 236.976562 195.882812 238.121094 195.578125 239.398438 195.578125 C 240.351562 195.578125 241.179688 195.742188 241.878906 196.074219 C 242.578125 196.410156 243.140625 196.789062 243.566406 197.222656 C 243.988281 197.652344 244.257812 198.03125 244.355469 198.351562 L 244.355469 195.972656 L 247.882812 195.972656 L 247.882812 209.625 Z M 236.171875 202.800781 C 236.171875 203.679688 236.363281 204.445312 236.75 205.101562 C 237.136719 205.753906 237.644531 206.261719 238.277344 206.609375 C 238.902344 206.96875 239.578125 207.144531 240.300781 207.144531 C 241.074219 207.144531 241.765625 206.960938 242.367188 206.59375 C 242.972656 206.230469 243.445312 205.726562 243.796875 205.070312 C 244.144531 204.421875 244.316406 203.664062 244.316406 202.800781 C 244.316406 201.9375 244.144531 201.179688 243.796875 200.53125 C 243.445312 199.886719 242.972656 199.371094 242.367188 199 C 241.765625 198.628906 241.074219 198.441406 240.300781 198.441406 C 239.578125 198.441406 238.910156 198.621094 238.277344 198.984375 C 237.652344 199.34375 237.144531 199.855469 236.75 200.511719 C 236.355469 201.164062 236.171875 201.929688 236.171875 202.800781 Z M 236.171875 202.800781 "
          fill-opacity="1" fill-rule="nonzero"/>
    <path fill="#56c2f9"
          d="M 258.296875 207.144531 C 259.085938 207.144531 259.722656 207.011719 260.214844 206.75 C 260.707031 206.492188 261.027344 206.296875 261.175781 206.179688 L 262.855469 208.671875 C 262.722656 208.78125 262.449219 208.945312 262.023438 209.160156 C 261.597656 209.378906 261.0625 209.578125 260.417969 209.75 C 259.769531 209.929688 259.03125 210.019531 258.214844 210.019531 C 256.859375 210.019531 255.632812 209.734375 254.53125 209.160156 C 253.429688 208.589844 252.546875 207.761719 251.882812 206.683594 C 251.222656 205.605469 250.894531 204.304688 250.894531 202.785156 C 250.894531 201.253906 251.222656 199.953125 251.882812 198.875 C 252.546875 197.792969 253.421875 196.976562 254.53125 196.410156 C 255.632812 195.84375 256.859375 195.5625 258.214844 195.5625 C 259.023438 195.5625 259.746094 195.652344 260.386719 195.839844 C 261.027344 196.023438 261.554688 196.226562 261.980469 196.464844 C 262.402344 196.695312 262.683594 196.878906 262.828125 197.011719 L 261.117188 199.503906 C 261.042969 199.429688 260.878906 199.304688 260.640625 199.132812 C 260.402344 198.960938 260.089844 198.804688 259.703125 198.65625 C 259.316406 198.515625 258.847656 198.441406 258.304688 198.441406 C 257.640625 198.441406 257 198.621094 256.390625 198.976562 C 255.78125 199.335938 255.28125 199.832031 254.894531 200.480469 C 254.507812 201.128906 254.316406 201.894531 254.316406 202.785156 C 254.316406 203.671875 254.507812 204.445312 254.894531 205.101562 C 255.28125 205.753906 255.78125 206.261719 256.390625 206.609375 C 256.996094 206.96875 257.632812 207.144531 258.296875 207.144531 Z M 258.296875 207.144531 "
          fill-opacity="1" fill-rule="nonzero"/>
    <path fill="#56c2f9"
          d="M 136.921875 171.011719 C 136.542969 171.011719 136.171875 170.902344 135.84375 170.691406 C 135.367188 170.378906 135.039062 169.882812 134.957031 169.316406 C 134.257812 164.519531 136.171875 158.632812 143.652344 156.5 C 144.167969 156.355469 144.726562 156.421875 145.1875 156.691406 C 145.648438 156.960938 145.988281 157.421875 146.117188 157.941406 C 147.269531 162.71875 145.601562 168.648438 137.441406 170.929688 C 137.277344 170.988281 137.101562 171.011719 136.921875 171.011719 Z M 143.460938 159.652344 C 138.4375 161.511719 137.695312 165.351562 137.769531 167.761719 C 143.246094 165.796875 143.734375 161.980469 143.460938 159.652344 Z M 143.460938 159.652344 "
          fill-opacity="1" fill-rule="nonzero"/>
    <path fill="#56c2f9"
          d="M 158.078125 182.617188 C 158.035156 181.972656 157.929688 181.375 157.832031 180.808594 C 156.746094 174.753906 152.523438 171.429688 146.527344 171.914062 C 144.375 172.089844 142.285156 172.566406 140.246094 173.027344 L 139.257812 173.257812 C 137.539062 173.644531 136.117188 173.660156 134.785156 173.3125 C 134.199219 173.15625 133.601562 173.019531 133.015625 172.886719 L 132.136719 172.695312 C 130.011719 172.210938 127.808594 171.71875 125.40625 171.898438 C 123.261719 172.0625 121.238281 172.894531 119.632812 174.324219 C 118.804688 175.058594 118.085938 175.980469 117.460938 176.882812 C 116.722656 177.945312 116.195312 179.351562 117.601562 180.179688 C 118.226562 180.550781 119.066406 180.511719 119.667969 180.105469 C 120.324219 179.648438 120.621094 178.855469 121.066406 178.199219 C 122.601562 175.929688 125.785156 175.429688 128.492188 175.839844 C 131.199219 176.25 133.8125 177.335938 136.558594 177.402344 C 139.605469 177.476562 142.53125 176.292969 145.550781 175.855469 C 147.605469 175.558594 149.859375 175.664062 151.53125 176.890625 C 153.667969 178.460938 154.269531 181.398438 154.253906 184.054688 C 154.226562 190.183594 151.851562 196.089844 148.675781 201.328125 C 147.449219 203.359375 145.796875 205.507812 143.4375 205.777344 C 141.398438 206.007812 139.496094 204.742188 137.457031 204.496094 C 134.703125 204.164062 132.085938 205.695312 129.332031 206.066406 C 127.019531 206.378906 124.59375 205.820312 122.644531 204.535156 C 124.496094 203.828125 126.433594 203.316406 128.246094 202.496094 C 130.054688 201.679688 131.78125 200.496094 132.785156 198.777344 C 134.28125 196.226562 133.855469 192.773438 131.980469 190.488281 C 127.644531 185.214844 118.925781 187.269531 116.164062 193.078125 C 114.839844 195.859375 114.757812 199.117188 115.757812 201.992188 C 115.464844 202.050781 115.167969 202.101562 114.871094 202.152344 C 114.839844 202.160156 114.65625 202.191406 114.65625 202.191406 C 114.492188 202.222656 114.320312 202.234375 114.148438 202.273438 C 113.101562 202.429688 112.082031 203.1875 112.171875 204.386719 C 112.253906 205.382812 113.144531 206.542969 114.285156 206.363281 C 115.480469 206.179688 116.6875 205.96875 117.867188 205.71875 C 117.957031 205.703125 118.644531 206.566406 118.777344 206.691406 C 119.140625 207.027344 119.542969 207.324219 119.945312 207.605469 C 120.734375 208.164062 121.589844 208.632812 122.472656 209.019531 C 125.71875 210.417969 129.4375 210.539062 132.824219 209.625 C 133.78125 209.363281 134.734375 209.035156 135.632812 208.613281 C 136.476562 208.230469 137.109375 208.121094 137.96875 208.460938 C 139.5625 209.085938 140.976562 209.691406 142.730469 209.691406 C 145.664062 209.691406 148.445312 208.277344 150.445312 205.589844 C 152.535156 202.792969 154.261719 199.59375 155.714844 195.816406 C 157.363281 191.546875 158.125 187.914062 158.117188 184.375 L 158.125 183.914062 C 158.125 183.757812 158.132812 183.585938 158.132812 183.40625 C 158.101562 183.160156 158.09375 182.894531 158.078125 182.617188 Z M 121.886719 200.4375 C 121.179688 200.660156 120.464844 200.867188 119.742188 201.058594 C 119.714844 201 119.691406 200.933594 119.667969 200.875 C 119.582031 200.628906 119.492188 200.367188 119.425781 200.109375 C 119.363281 199.886719 119.320312 199.65625 119.269531 199.421875 C 119.261719 199.417969 119.261719 199.402344 119.253906 199.386719 C 119.253906 199.371094 119.246094 199.355469 119.246094 199.347656 C 119.246094 199.320312 119.238281 199.304688 119.230469 199.273438 C 119.214844 199.1875 119.207031 199.089844 119.199219 199 C 119.148438 198.5 119.117188 198.011719 119.148438 197.503906 C 119.15625 197.398438 119.191406 197.066406 119.191406 197.027344 C 119.222656 196.789062 119.261719 196.550781 119.320312 196.320312 C 119.371094 196.089844 119.425781 195.875 119.5 195.652344 C 119.511719 195.605469 119.527344 195.5625 119.542969 195.511719 C 119.550781 195.480469 119.566406 195.429688 119.582031 195.390625 C 119.582031 195.382812 119.585938 195.375 119.585938 195.371094 C 119.59375 195.363281 119.59375 195.347656 119.59375 195.339844 C 119.804688 194.871094 120.042969 194.433594 120.316406 194 C 120.316406 194 120.316406 194 120.316406 193.992188 C 120.332031 193.976562 120.339844 193.964844 120.347656 193.949219 C 120.347656 193.949219 120.355469 193.933594 120.359375 193.925781 C 120.40625 193.867188 120.449219 193.800781 120.503906 193.738281 C 120.636719 193.570312 120.792969 193.398438 120.949219 193.242188 C 121.113281 193.070312 121.292969 192.914062 121.460938 192.75 C 121.460938 192.75 121.460938 192.742188 121.46875 192.742188 C 121.476562 192.734375 121.476562 192.726562 121.484375 192.726562 C 121.589844 192.652344 121.683594 192.570312 121.789062 192.496094 C 121.996094 192.363281 122.199219 192.230469 122.414062 192.101562 C 122.511719 192.050781 122.601562 192 122.703125 191.945312 C 122.710938 191.945312 122.734375 191.933594 122.757812 191.917969 C 122.777344 191.910156 122.792969 191.902344 122.816406 191.886719 C 122.816406 191.886719 122.824219 191.878906 122.832031 191.878906 C 122.890625 191.859375 122.941406 191.835938 122.964844 191.820312 C 123.070312 191.785156 123.164062 191.746094 123.269531 191.714844 C 123.523438 191.628906 123.785156 191.546875 124.042969 191.484375 C 124.148438 191.464844 124.199219 191.457031 124.222656 191.441406 L 124.230469 191.441406 C 124.253906 191.441406 124.273438 191.441406 124.3125 191.433594 C 124.550781 191.402344 124.800781 191.390625 125.039062 191.382812 C 125.25 191.382812 125.449219 191.390625 125.65625 191.402344 C 125.671875 191.402344 125.679688 191.410156 125.6875 191.410156 C 125.820312 191.441406 125.96875 191.457031 126.113281 191.484375 C 126.359375 191.546875 126.609375 191.621094 126.863281 191.6875 C 126.894531 191.695312 126.929688 191.714844 126.96875 191.722656 C 126.988281 191.730469 127.011719 191.746094 127.035156 191.753906 C 127.042969 191.753906 127.042969 191.753906 127.042969 191.753906 C 127.085938 191.785156 127.132812 191.789062 127.175781 191.820312 C 127.390625 191.917969 127.59375 192.027344 127.785156 192.15625 C 127.839844 192.183594 127.890625 192.222656 127.941406 192.253906 C 127.941406 192.257812 128.179688 192.429688 128.21875 192.460938 C 128.402344 192.617188 128.566406 192.78125 128.730469 192.957031 L 128.753906 192.980469 C 128.761719 192.988281 128.769531 192.996094 128.773438 193.003906 C 128.78125 193.011719 128.789062 193.027344 128.789062 193.035156 C 128.8125 193.054688 128.820312 193.070312 128.828125 193.085938 C 128.828125 193.085938 128.835938 193.085938 128.835938 193.09375 C 128.835938 193.101562 128.84375 193.101562 128.84375 193.101562 C 128.851562 193.113281 128.855469 193.121094 128.855469 193.121094 C 128.886719 193.160156 128.910156 193.195312 128.9375 193.234375 C 129.066406 193.421875 129.175781 193.613281 129.28125 193.808594 C 129.28125 193.8125 129.289062 193.820312 129.289062 193.835938 C 129.347656 193.976562 129.40625 194.113281 129.453125 194.261719 C 129.496094 194.402344 129.535156 194.550781 129.570312 194.699219 C 129.59375 194.722656 129.617188 194.804688 129.625 194.871094 C 129.617188 194.878906 129.625 194.878906 129.625 194.886719 C 129.625 194.894531 129.625 194.894531 129.625 194.894531 C 129.636719 194.996094 129.644531 195.109375 129.652344 195.207031 C 129.660156 195.339844 129.667969 195.480469 129.660156 195.613281 L 129.660156 195.703125 C 129.660156 195.726562 129.652344 195.734375 129.652344 195.742188 C 129.644531 195.792969 129.636719 195.859375 129.636719 195.882812 C 129.609375 196.015625 129.570312 196.144531 129.542969 196.277344 C 129.542969 196.308594 129.535156 196.328125 129.527344 196.351562 C 129.527344 196.359375 129.527344 196.359375 129.527344 196.359375 C 129.488281 196.449219 129.445312 196.539062 129.394531 196.625 C 129.339844 196.722656 129.273438 196.8125 129.222656 196.917969 C 129.222656 196.917969 129.222656 196.925781 129.222656 196.929688 C 129.085938 197.082031 128.953125 197.238281 128.804688 197.378906 C 128.746094 197.4375 128.6875 197.496094 128.617188 197.550781 C 128.617188 197.550781 128.617188 197.550781 128.617188 197.554688 C 128.617188 197.554688 128.613281 197.554688 128.605469 197.5625 C 128.574219 197.585938 128.523438 197.632812 128.449219 197.675781 C 128.007812 197.988281 127.546875 198.234375 127.078125 198.480469 C 127.050781 198.492188 127.019531 198.507812 126.996094 198.515625 C 126.996094 198.523438 126.988281 198.523438 126.988281 198.523438 C 126.871094 198.566406 126.757812 198.621094 126.648438 198.671875 C 126.335938 198.804688 126.023438 198.933594 125.710938 199.066406 C 124.4375 199.566406 123.171875 200.035156 121.886719 200.4375 Z M 121.886719 200.4375 "
          fill-opacity="1" fill-rule="nonzero"/>
</svg>